<svg xmlns="http://www.w3.org/2000/svg" width="950" height="263" viewBox="0 0 950 263">
<g>
<path d="M 824.78 131.25 L 824.50 144.50 L 819.74 144.81 C816.50,145.01 814.82,144.69 814.48,143.80 C814.20,143.07 814.09,128.31 814.24,110.99 L 814.50 79.50 L 831.00 78.77 C844.49,78.17 848.34,78.31 852.09,79.54 C861.83,82.75 866.43,92.25 863.91,104.00 C862.82,109.06 858.36,114.92 853.58,117.56 C851.78,118.55 852.00,119.24 857.43,129.56 C860.60,135.58 863.60,140.93 864.10,141.45 C864.59,141.97 865.00,142.99 865.00,143.70 C865.00,145.44 854.63,145.48 853.25,143.75 C852.25,142.50 842.50,124.48 840.54,120.26 C839.60,118.24 838.78,118.01 832.28,118.01 L 825.06 118.00 ZM 191.08 150.00 C190.70,150.27 189.74,151.45 188.94,152.61 L 187.50 154.72 L 184.78 151.95 L 182.06 149.19 L 182.49 107.89 C182.89,68.87 182.81,66.35 181.00,62.27 C179.95,59.89 178.39,57.25 177.54,56.40 C175.29,54.15 175.52,51.06 177.89,51.68 C178.92,51.95 189.83,61.18 202.14,72.20 C214.44,83.21 227.76,95.13 231.75,98.68 C235.74,102.23 239.00,105.78 239.00,106.55 C239.00,108.63 235.21,109.24 224.68,108.85 L 215.28 108.50 L 206.56 100.50 C205.14,99.20 203.88,98.01 202.76,96.95 C198.84,93.24 196.64,91.17 195.43,91.64 C193.88,92.23 193.91,96.91 193.97,107.54 C193.98,109.93 194.00,112.62 193.99,115.63 C193.99,139.50 193.23,148.46 191.08,150.00 ZM 893.78 138.50 L 890.57 145.00 L 884.29 145.00 C880.83,145.00 878.00,144.68 878.00,144.29 C878.00,143.15 909.91,79.00 910.48,79.00 C910.76,79.00 918.43,93.87 927.52,112.05 L 944.05 145.10 L 937.81 144.80 L 931.56 144.50 L 928.03 138.26 L 924.50 132.01 L 910.74 132.01 L 896.98 132.00 ZM 288.75 143.46 C275.35,146.28 265.35,143.36 256.69,134.10 C249.34,126.25 247.55,121.92 247.52,112.00 C247.50,101.98 249.57,96.60 256.28,89.29 C262.64,82.37 270.53,79.00 280.40,79.00 C287.02,79.00 289.17,79.44 293.69,81.73 C296.66,83.23 299.98,85.42 301.08,86.59 L 303.08 88.72 L 299.54 91.83 L 296.00 94.94 L 291.25 92.38 C287.06,90.13 285.60,89.87 278.90,90.24 C272.50,90.59 270.65,91.11 267.15,93.58 C258.95,99.35 255.70,111.39 259.88,120.50 C265.29,132.30 279.39,137.47 289.85,131.49 C295.29,128.38 295.96,128.42 298.85,132.08 C300.79,134.53 300.98,135.32 299.94,136.57 C299.25,137.41 298.07,137.86 297.32,137.57 C295.94,137.04 292.00,140.24 292.00,141.89 C292.00,142.37 290.54,143.08 288.75,143.46 ZM 788.62 136.65 C786.17,139.50 782.37,140.17 776.02,138.87 C774.11,138.48 772.16,138.40 771.68,138.70 C771.20,138.99 769.84,138.77 768.65,138.20 C767.47,137.62 765.26,136.89 763.75,136.56 C762.24,136.23 761.00,135.47 761.00,134.87 C761.00,133.46 766.01,134.65 767.92,136.52 C769.10,137.67 769.78,137.69 771.92,136.62 C773.34,135.91 775.84,134.68 777.48,133.89 C779.12,133.10 781.48,130.93 782.73,129.08 C784.93,125.81 785.00,124.98 785.00,102.35 L 785.00 79.00 L 796.18 79.00 L 795.77 103.25 C795.36,126.77 794.44,134.00 791.85,134.00 C791.33,134.00 789.88,135.19 788.62,136.65 ZM 825.67 106.33 C826.03,106.70 831.18,107.00 837.11,107.00 C846.88,107.00 848.12,106.79 850.40,104.75 C851.78,103.51 853.19,100.88 853.54,98.90 C854.04,96.00 853.72,94.80 851.83,92.70 C849.65,90.26 848.89,90.08 840.00,89.95 C834.78,89.87 829.26,89.85 827.75,89.91 L 825.00 90.00 L 825.00 97.83 C825.00,102.14 825.30,105.97 825.67,106.33 ZM 21.70 106.50 C21.10,108.23 19.96,108.54 13.10,108.81 C0.07,109.33 0.67,107.17 17.45,93.25 C24.25,87.61 30.06,83.00 30.37,83.00 C31.23,83.00 30.13,85.76 25.86,94.33 C23.71,98.64 22.05,102.69 22.17,103.33 C22.29,103.97 22.08,105.40 21.70,106.50 ZM 116.00 117.00 L 116.00 139.00 L 113.52 139.00 C110.59,139.00 110.34,138.15 109.61,125.75 L 109.10 117.00 ZM 904.04 118.75 C904.01,119.64 906.15,120.00 911.51,120.00 L 919.02 120.00 L 910.67 103.50 L 907.37 110.50 C905.56,114.35 904.06,118.06 904.04,118.75 ZM 149.00 97.11 L 149.00 106.00 L 143.00 106.00 L 142.99 99.25 C142.98,95.54 142.70,90.82 142.36,88.77 C141.57,83.97 144.27,82.38 147.16,85.94 C148.64,87.78 149.00,89.96 149.00,97.11 ZM 115.78 95.25 C115.51,105.93 115.39,106.52 113.33,106.81 C111.39,107.08 111.10,106.55 110.58,101.81 C110.27,98.89 110.08,95.38 110.17,94.00 C110.27,92.62 109.99,89.81 109.56,87.75 L 108.78 84.00 L 116.07 84.00 ZM 149.00 126.25 C149.00,136.98 147.65,140.51 144.68,137.54 C143.47,136.33 142.95,133.91 142.82,128.93 C142.72,125.12 142.61,120.99 142.57,119.75 C142.51,117.92 143.11,117.44 145.75,117.19 L 149.00 116.87 ZM 326.41 82.17 C325.49,83.96 325.12,84.75 324.70,84.78 C324.38,84.80 324.04,84.41 323.42,83.71 C323.35,83.62 323.28,83.54 323.20,83.45 C322.12,82.23 322.12,81.73 323.21,80.65 C323.93,79.93 325.28,79.33 326.20,79.33 C327.72,79.33 327.74,79.60 326.41,82.17 Z" fill="rgb(199,160,91)"/>
<path d="M 65.00 75.64 C63.72,76.86 63.43,84.11 63.00,124.60 L 62.50 172.14 L 59.94 169.32 C54.56,163.39 50.10,156.21 46.37,147.50 C44.96,144.20 44.58,139.23 44.23,119.25 C43.99,105.91 43.41,95.00 42.93,95.00 C42.46,95.00 40.39,96.46 38.33,98.25 C35.39,100.81 34.94,100.99 36.24,99.11 C38.21,96.25 43.04,92.91 44.19,93.62 C44.63,93.89 45.00,96.25 45.00,98.86 C45.00,101.47 45.40,104.03 45.90,104.55 C46.39,105.08 46.51,109.74 46.15,115.00 C45.11,130.25 46.97,147.14 49.93,149.27 C50.87,149.95 52.47,151.94 53.50,153.70 C55.82,157.66 57.00,157.07 57.00,151.94 C57.00,148.65 56.67,148.00 54.97,148.00 C52.42,148.00 51.31,145.33 52.84,142.88 C53.58,141.69 54.04,135.18 54.10,124.76 C54.16,115.06 54.52,109.51 55.00,111.00 C55.54,112.70 55.83,110.77 55.89,105.00 C55.94,99.01 55.67,96.94 54.97,98.00 C54.27,99.04 54.05,96.36 54.23,89.25 C54.38,83.62 54.85,79.01 55.27,79.00 C55.69,79.00 55.99,74.46 55.92,68.90 C55.84,62.71 56.22,58.38 56.90,57.70 C58.39,56.21 58.24,50.90 56.65,48.80 C55.73,47.60 53.47,46.99 48.93,46.72 C45.01,46.49 46.20,46.37 52.00,46.42 C60.86,46.49 61.57,46.65 62.49,48.75 C63.03,49.99 64.07,51.00 64.80,51.00 C65.52,51.00 70.27,47.29 75.34,42.75 C80.41,38.21 88.09,31.37 92.40,27.54 C100.40,20.43 103.80,17.35 110.00,11.57 C116.53,5.48 122.49,3.62 127.32,6.15 C130.06,7.59 136.35,13.00 135.27,13.00 C134.84,13.00 133.24,11.85 131.73,10.45 C128.68,7.62 124.74,6.77 121.08,8.15 C118.44,9.14 119.18,10.73 122.52,11.25 C125.88,11.77 126.68,12.80 126.22,15.96 C125.93,17.95 126.20,19.00 127.01,19.00 C127.85,19.00 128.06,19.96 127.65,22.00 C126.96,25.46 129.88,29.15 145.48,44.50 C150.51,49.45 152.80,51.88 150.56,49.89 C136.63,37.51 123.47,27.00 121.90,27.00 C120.11,27.00 116.95,29.41 108.15,37.50 C105.75,39.70 102.57,42.62 101.07,44.00 C95.38,49.23 83.18,59.97 75.00,66.95 C70.32,70.94 65.82,74.85 65.00,75.64 ZM 474.42 140.78 L 473.74 145.00 L 464.00 145.00 L 464.00 112.50 C464.00,94.62 464.34,80.01 464.75,80.01 C465.72,80.03 477.89,91.12 502.87,114.75 C504.76,116.54 506.64,118.00 507.04,118.00 C508.59,118.00 509.09,112.22 508.92,96.34 C508.83,87.31 509.03,79.64 509.37,79.30 C509.71,78.95 511.91,78.63 514.25,78.59 L 518.50 78.50 L 518.76 110.25 C518.77,111.24 518.78,112.20 518.79,113.13 C518.97,134.26 519.03,141.25 517.22,141.77 C516.33,142.03 514.98,140.71 512.96,138.73 C512.78,138.55 512.60,138.37 512.41,138.18 C501.01,127.04 478.97,107.06 476.79,105.89 C476.72,105.85 476.65,105.81 476.58,105.77 C476.18,105.56 475.88,105.39 475.64,105.46 C474.83,105.70 474.86,108.76 474.98,122.41 C474.98,123.09 474.99,123.79 474.99,124.53 C475.05,131.14 474.79,138.45 474.42,140.78 ZM 400.88 138.61 L 397.98 145.00 L 391.49 145.00 C387.92,145.00 385.00,144.65 385.00,144.23 C385.00,142.63 416.54,80.61 417.51,80.31 C418.76,79.92 450.27,142.76 449.47,144.05 C449.14,144.57 446.69,145.00 444.01,145.00 L 439.14 145.00 L 435.41 138.75 C433.35,135.31 431.48,132.27 431.25,132.00 C430.64,131.26 412.13,130.99 407.64,131.65 C404.02,132.18 403.59,132.62 400.88,138.61 ZM 573.50 141.76 C568.94,144.12 567.27,144.37 554.50,144.66 C546.80,144.83 539.94,144.71 539.25,144.40 C538.50,144.06 538.00,141.90 538.00,138.99 L 538.00 134.14 L 552.83 133.82 C567.09,133.51 567.82,133.39 571.82,130.74 C585.49,121.68 585.34,101.05 571.54,92.52 C566.80,89.59 566.25,89.49 552.28,89.16 L 537.90 88.81 L 538.20 83.66 L 538.50 78.50 L 549.00 78.19 C570.35,77.56 582.23,82.83 589.48,96.14 C591.92,100.61 592.47,102.95 592.83,110.28 C593.22,118.54 593.06,119.44 590.08,125.49 C586.60,132.56 581.37,137.69 573.50,141.76 ZM 610.71 144.20 C610.04,144.62 607.14,144.98 604.25,144.98 C600.26,145.00 599.00,144.64 599.00,143.51 C599.00,141.86 628.38,82.22 629.99,80.61 C630.66,79.94 631.47,80.25 632.43,81.55 C634.17,83.90 635.17,87.22 633.91,86.44 C633.41,86.13 633.00,85.21 633.00,84.40 C633.00,81.88 629.60,83.31 627.98,86.50 C627.14,88.15 625.16,92.41 623.58,95.96 C621.99,99.52 619.41,104.60 617.85,107.26 C616.28,109.91 615.00,113.36 615.00,114.92 C615.00,116.48 614.33,118.32 613.50,119.00 C612.67,119.68 612.00,120.84 612.00,121.57 C612.00,122.29 610.45,126.29 608.56,130.44 C605.02,138.21 605.51,140.31 609.80,135.75 C617.63,127.44 618.37,126.87 620.43,127.56 C621.57,127.95 626.78,128.59 632.00,128.98 C643.33,129.83 645.77,130.69 647.89,134.62 C652.43,143.02 653.37,143.99 657.05,143.99 C659.00,144.00 661.08,143.52 661.67,142.93 C662.42,142.18 662.91,142.32 663.34,143.43 C663.84,144.75 662.98,145.00 657.99,145.00 L 652.05 145.00 L 644.57 132.00 L 617.15 132.00 L 614.53 137.72 C613.09,140.86 611.37,143.78 610.71,144.20 ZM 632.31 121.00 C629.32,121.00 626.06,121.43 625.07,121.96 C624.07,122.50 622.98,122.65 622.63,122.30 C621.52,121.19 621.95,116.51 623.35,114.47 C624.09,113.39 625.02,111.15 625.42,109.50 C625.81,107.85 626.79,105.49 627.59,104.25 C629.14,101.86 632.99,101.15 633.02,103.25 C633.03,103.94 634.59,107.62 636.48,111.44 C640.66,119.83 640.15,121.00 632.31,121.00 ZM 143.00 103.84 L 143.00 106.00 L 149.00 106.00 L 149.00 107.00 L 137.92 106.75 C131.82,106.61 126.65,106.31 126.42,106.08 C126.19,105.85 126.00,100.72 126.00,94.67 C126.00,88.62 126.28,83.95 126.63,84.29 C126.97,84.64 127.17,89.70 127.07,95.54 C126.90,105.30 127.03,106.14 128.69,105.82 C130.28,105.52 130.52,104.24 130.66,95.16 C130.75,89.48 130.99,84.68 131.18,84.48 C131.38,84.29 134.00,83.89 137.02,83.60 C140.03,83.31 141.60,83.33 140.50,83.65 C137.43,84.54 136.98,85.96 137.57,93.00 C138.53,104.74 138.89,106.00 141.19,106.00 C142.36,106.00 142.87,105.89 143.00,103.84 ZM 141.75 139.28 C143.26,139.51 140.64,139.77 135.92,139.85 C131.20,139.93 127.03,139.70 126.67,139.33 C125.69,138.35 125.85,116.79 126.84,117.40 C127.30,117.68 127.46,122.66 127.21,128.46 C126.80,137.52 126.96,139.00 128.29,139.00 C129.48,139.00 129.98,137.42 130.46,132.25 C130.79,128.54 131.27,124.28 131.50,122.79 C131.76,121.18 131.31,119.45 130.40,118.54 C129.01,117.15 129.44,117.00 134.68,117.03 C139.09,117.05 140.08,117.31 138.77,118.07 C137.28,118.94 137.11,120.17 137.58,126.79 C138.38,138.11 138.62,138.81 141.75,139.28 ZM 106.57 138.43 C108.00,139.86 107.66,140.00 102.79,140.00 C97.59,140.00 93.00,138.07 93.00,135.88 C93.00,135.33 93.40,135.13 93.89,135.43 C95.74,136.57 97.17,132.85 97.73,125.40 C98.30,117.87 98.26,117.70 96.16,118.25 C94.97,118.56 93.75,118.40 93.44,117.91 C93.13,117.40 95.83,117.00 99.56,117.00 C104.77,117.00 106.03,117.28 105.26,118.25 C104.39,119.34 104.25,124.67 104.84,134.18 C104.93,135.65 105.71,137.56 106.57,138.43 ZM 103.20 106.00 C101.58,106.00 98.73,106.28 96.88,106.62 C93.77,107.19 93.65,107.13 95.38,105.79 C96.90,104.61 97.32,102.77 97.55,96.33 C97.87,87.07 97.11,84.88 94.33,87.05 C92.68,88.32 92.69,88.24 94.40,86.23 C95.81,84.59 97.40,84.00 100.44,84.00 L 104.57 84.00 L 104.78 92.25 C104.90,96.79 105.26,101.74 105.58,103.25 C106.11,105.76 105.90,106.00 103.20,106.00 ZM 371.76 111.75 L 372.03 145.00 L 361.00 145.00 L 361.10 141.25 C361.18,138.17 361.32,137.93 361.87,139.91 C362.80,143.22 365.49,144.81 367.75,143.39 C369.33,142.39 369.55,139.38 370.07,111.89 C370.42,93.47 370.27,81.01 369.70,80.25 C368.47,78.63 362.32,78.63 361.66,80.25 C361.37,80.98 361.12,80.75 361.08,79.70 C361.01,78.14 361.72,77.94 366.25,78.20 L 371.50 78.50 ZM 389.44 140.90 C390.12,142.00 394.68,141.09 395.91,139.60 C396.45,138.96 398.32,134.85 400.06,130.46 C401.81,126.08 403.82,122.16 404.53,121.75 C405.23,121.34 405.58,120.12 405.30,119.03 C405.01,117.95 405.25,115.71 405.83,114.05 C406.45,112.27 406.51,110.81 405.97,110.48 C405.47,110.17 404.79,111.00 404.45,112.33 C404.12,113.65 402.52,115.72 400.90,116.92 C399.27,118.12 398.21,119.53 398.53,120.05 C398.85,120.57 398.73,121.00 398.25,121.00 C397.77,121.00 397.34,122.89 397.30,125.21 C397.24,128.42 396.63,129.89 394.73,131.46 C391.93,133.75 388.64,139.62 389.44,140.90 ZM 411.53 117.90 C410.90,119.90 411.21,120.00 417.93,120.00 C422.67,120.00 425.00,119.61 425.00,118.83 C425.00,116.88 418.90,105.00 417.90,105.00 C417.04,105.00 413.08,113.03 411.53,117.90 ZM 624.00 119.58 C624.00,119.81 627.15,120.00 631.00,120.00 C639.15,120.00 639.38,119.59 635.43,112.04 C631.92,105.34 630.30,104.09 629.11,107.14 C628.61,108.44 627.25,111.67 626.10,114.33 C624.94,116.99 624.00,119.35 624.00,119.58 ZM 415.26 91.75 C416.76,93.65 417.72,93.26 418.24,90.52 C418.78,87.69 418.34,87.00 416.00,87.00 C414.16,87.00 413.72,89.80 415.26,91.75 ZM 361.57 118.11 C361.91,118.67 361.98,119.36 361.70,119.63 C361.43,119.91 360.90,119.65 360.54,119.07 C360.18,118.48 357.55,117.97 354.69,117.94 C350.20,117.88 349.84,117.74 352.00,116.87 C354.78,115.76 360.58,116.51 361.57,118.11 ZM 406.28 104.97 C406.19,106.16 406.73,106.72 407.82,106.56 C409.76,106.27 410.61,103.50 409.06,102.53 C408.47,102.18 408.00,102.39 408.00,103.00 C408.00,103.61 407.64,103.90 407.21,103.63 C406.77,103.36 406.35,103.96 406.28,104.97 ZM 123.00 21.00 C123.00,21.55 123.45,22.00 124.00,22.00 C124.55,22.00 125.00,21.55 125.00,21.00 C125.00,20.45 124.55,20.00 124.00,20.00 C123.45,20.00 123.00,20.45 123.00,21.00 ZM 142.53 90.04 C142.79,92.41 142.98,96.17 142.99,99.25 L 142.99 100.75 C142.95,99.37 142.86,97.63 142.75,95.43 C142.64,93.22 142.56,91.45 142.53,90.04 Z" fill="rgb(234,216,143)"/>
<path d="M 191.08 150.00 C191.30,149.84 191.51,149.61 191.70,149.29 C191.45,149.87 191.17,150.48 190.84,151.17 C188.09,157.04 181.75,166.18 178.27,169.28 C176.32,171.02 176.27,170.97 175.64,166.39 C175.29,163.82 175.00,141.35 175.00,116.45 L 175.00 71.18 L 166.32 63.06 C161.54,58.59 156.65,54.39 155.44,53.72 C154.24,53.05 146.61,46.76 138.50,39.75 C130.59,32.91 123.29,27.28 122.00,27.01 C123.94,27.38 136.88,37.73 150.56,49.89 C152.80,51.88 150.51,49.45 145.48,44.50 C129.88,29.15 126.96,25.46 127.65,22.00 C128.06,19.96 127.85,19.00 127.01,19.00 C126.20,19.00 125.93,17.95 126.22,15.96 C126.68,12.80 125.88,11.77 122.52,11.25 C119.18,10.73 118.44,9.14 121.08,8.15 C124.74,6.77 128.68,7.62 131.73,10.45 C133.24,11.85 134.84,13.00 135.27,13.00 C135.52,13.00 135.38,12.73 135.00,12.28 C135.72,12.92 136.44,13.57 137.16,14.23 C141.20,17.93 150.80,26.53 158.50,33.34 C166.00,39.97 183.09,55.20 196.98,67.62 C186.92,58.73 178.77,51.91 177.89,51.68 C175.52,51.06 175.29,54.15 177.54,56.40 C178.39,57.25 179.95,59.89 181.00,62.27 C182.81,66.35 182.89,68.87 182.49,107.89 L 182.06 149.19 L 184.78 151.95 L 187.50 154.72 L 188.94 152.61 C189.74,151.45 190.70,150.27 191.08,150.00 ZM 332.50 118.50 L 331.94 145.00 L 326.97 145.00 C322.94,145.00 321.98,144.67 321.91,143.25 C321.53,135.66 321.39,81.23 321.75,80.25 C322.04,79.48 324.10,79.00 327.08,79.00 L 331.94 79.00 L 332.22 92.75 L 332.50 106.50 L 346.42 106.78 C356.58,106.98 360.55,106.73 361.10,105.83 C361.52,105.16 361.65,98.60 361.40,91.25 L 360.94 77.89 L 365.85 78.18 C361.68,77.95 361.01,78.19 361.08,79.70 C361.12,80.75 361.37,80.98 361.66,80.25 C362.32,78.63 368.47,78.63 369.70,80.25 C370.27,81.01 370.42,93.47 370.07,111.89 C369.55,139.38 369.33,142.39 367.75,143.39 C365.49,144.81 362.80,143.22 361.87,139.91 C361.32,137.93 361.18,138.17 361.10,141.25 L 361.00 145.00 L 360.87 145.00 L 361.09 132.46 C361.22,125.22 360.90,119.50 360.33,118.93 C359.75,118.35 353.82,118.05 345.92,118.22 ZM 21.70 106.50 C22.08,105.40 22.29,103.97 22.17,103.33 C22.05,102.69 23.71,98.64 25.86,94.33 C30.13,85.76 31.23,83.00 30.37,83.00 C30.12,83.00 26.05,86.19 20.78,90.50 C26.14,85.99 31.76,81.09 34.55,78.48 L 41.00 72.47 L 41.00 60.36 C41.00,51.19 41.34,47.96 42.40,47.08 C43.30,46.34 46.99,46.02 52.65,46.21 C57.79,46.38 60.00,46.53 61.17,47.14 C59.98,46.55 57.64,46.47 52.00,46.42 C46.20,46.37 45.01,46.49 48.93,46.72 C53.47,46.99 55.73,47.60 56.65,48.80 C58.24,50.90 58.39,56.21 56.90,57.70 C56.22,58.38 55.84,62.71 55.92,68.90 C55.99,74.46 55.69,79.00 55.27,79.00 C54.85,79.01 54.38,83.62 54.23,89.25 C54.05,96.36 54.27,99.04 54.97,98.00 C55.67,96.94 55.94,99.01 55.89,105.00 C55.83,110.77 55.54,112.70 55.00,111.00 C54.52,109.51 54.16,115.06 54.10,124.76 C54.04,135.18 53.58,141.69 52.84,142.88 C51.31,145.33 52.42,148.00 54.97,148.00 C56.67,148.00 57.00,148.65 57.00,151.94 C57.00,157.07 55.82,157.66 53.50,153.70 C52.47,151.94 50.87,149.95 49.93,149.27 C46.97,147.14 45.11,130.25 46.15,115.00 C46.51,109.74 46.39,105.08 45.90,104.55 C45.40,104.03 45.00,101.47 45.00,98.86 C45.00,96.25 44.63,93.89 44.19,93.62 C43.04,92.91 38.21,96.25 36.24,99.11 C35.40,100.32 35.29,100.67 36.10,100.09 C36.00,100.18 35.90,100.26 35.81,100.34 C27.57,107.31 25.97,108.21 16.98,108.60 C20.45,108.33 21.24,107.84 21.70,106.50 ZM 687.78 131.54 L 687.50 144.50 L 682.88 144.80 C678.42,145.09 678.25,145.00 677.63,141.92 C676.85,137.99 676.82,112.28 677.60,109.37 C678.15,107.33 678.85,107.23 695.72,106.81 L 713.28 106.38 L 715.64 103.63 C718.36,100.47 718.71,95.52 716.43,92.50 C715.04,90.66 713.43,90.46 696.79,90.00 L 678.66 89.50 L 677.73 86.71 C677.22,85.17 677.07,82.87 677.39,81.60 C677.95,79.35 678.37,79.27 693.23,78.61 C710.63,77.83 716.38,78.61 721.95,82.47 C728.55,87.04 730.94,98.17 727.12,106.50 C723.21,115.02 717.68,117.36 702.00,117.17 C695.67,117.09 689.95,117.37 689.28,117.80 C688.45,118.33 687.97,122.71 687.78,131.54 ZM 634.46 85.91 C635.09,87.07 635.75,88.36 636.41,89.72 C639.01,95.10 641.78,100.69 642.56,102.14 C644.79,106.28 661.36,139.25 662.73,142.28 L 662.90 142.66 C662.57,142.32 662.18,142.42 661.67,142.93 C661.08,143.52 659.00,144.00 657.05,143.99 C653.37,143.99 652.43,143.02 647.89,134.62 C645.77,130.69 643.33,129.83 632.00,128.98 C626.78,128.59 621.57,127.95 620.43,127.56 C618.37,126.87 617.63,127.44 609.80,135.75 C605.51,140.31 605.02,138.21 608.56,130.44 C610.45,126.29 612.00,122.29 612.00,121.57 C612.00,120.84 612.67,119.68 613.50,119.00 C614.33,118.32 615.00,116.48 615.00,114.92 C615.00,113.36 616.28,109.91 617.85,107.26 C619.41,104.60 621.99,99.52 623.58,95.96 C625.16,92.41 627.14,88.15 627.98,86.50 C629.60,83.31 633.00,81.88 633.00,84.40 C633.00,85.21 633.41,86.13 633.91,86.44 C634.37,86.73 634.53,86.47 634.46,85.91 ZM 788.62 136.65 C789.88,135.19 791.33,134.00 791.85,134.00 C792.10,134.00 792.33,133.94 792.54,133.80 C789.74,138.46 784.44,142.65 779.50,143.90 C768.87,146.57 757.02,144.03 751.35,137.85 C746.44,132.51 745.75,128.87 745.24,105.80 C744.98,93.86 745.03,83.00 745.37,81.66 C746.06,78.92 749.56,77.60 753.50,78.59 L 756.00 79.22 L 756.00 100.48 C756.00,112.18 756.29,123.21 756.65,124.99 C757.00,126.77 758.82,129.75 760.68,131.61 C763.82,134.75 764.54,135.00 770.40,135.00 C773.02,135.00 774.82,134.87 776.24,134.49 C774.75,135.22 773.01,136.08 771.92,136.62 C769.78,137.69 769.10,137.67 767.92,136.52 C766.01,134.65 761.00,133.46 761.00,134.87 C761.00,135.47 762.24,136.23 763.75,136.56 C765.26,136.89 767.47,137.62 768.65,138.20 C769.84,138.77 771.20,138.99 771.68,138.70 C772.16,138.40 774.11,138.48 776.02,138.87 C782.37,140.17 786.17,139.50 788.62,136.65 ZM 632.31 121.00 C640.15,121.00 640.66,119.83 636.48,111.44 C634.59,107.62 633.03,103.94 633.02,103.25 C632.99,101.15 629.14,101.86 627.59,104.25 C626.79,105.49 625.81,107.85 625.42,109.50 C625.02,111.15 624.09,113.39 623.35,114.47 C621.95,116.51 621.52,121.19 622.63,122.30 C622.98,122.65 624.07,122.50 625.07,121.96 C626.06,121.43 629.32,121.00 632.31,121.00 ZM 141.75 139.28 C138.62,138.81 138.38,138.11 137.58,126.79 C137.11,120.17 137.28,118.94 138.77,118.07 C140.08,117.31 139.09,117.05 134.68,117.03 C129.44,117.00 129.01,117.15 130.40,118.54 C131.31,119.45 131.76,121.18 131.50,122.79 C131.27,124.28 130.79,128.54 130.46,132.25 C129.98,137.42 129.48,139.00 128.29,139.00 C126.96,139.00 126.80,137.52 127.21,128.46 C127.46,122.66 127.30,117.68 126.84,117.40 C126.29,117.06 126.00,123.58 126.01,129.60 C126.00,129.02 126.00,128.43 126.00,127.83 L 126.00 117.00 L 147.69 117.00 L 145.75 117.19 C143.11,117.44 142.51,117.92 142.57,119.75 C142.61,120.99 142.72,125.12 142.82,128.93 C142.95,133.91 143.47,136.33 144.68,137.54 C145.39,138.25 146.01,138.59 146.53,138.54 C145.56,139.14 144.03,139.44 141.01,139.64 C142.20,139.53 142.55,139.40 141.75,139.28 ZM 143.00 103.84 C142.87,105.89 142.36,106.00 141.19,106.00 C138.89,106.00 138.53,104.74 137.57,93.00 C136.98,85.96 137.43,84.54 140.50,83.65 C141.60,83.33 140.03,83.31 137.02,83.60 C134.00,83.89 131.38,84.29 131.18,84.48 C130.99,84.68 130.75,89.48 130.66,95.16 C130.52,104.24 130.28,105.52 128.69,105.82 C127.03,106.14 126.90,105.30 127.07,95.54 C127.17,89.70 126.97,84.64 126.63,84.29 C126.28,83.95 126.00,88.62 126.00,94.67 C126.00,100.72 126.19,105.85 126.42,106.08 C126.19,105.85 126.00,100.86 126.00,94.98 L 126.00 84.29 L 133.12 83.69 C138.46,83.25 142.04,83.19 144.41,84.02 C142.84,83.83 141.84,85.60 142.36,88.77 C142.42,89.12 142.48,89.55 142.53,90.04 C142.56,91.45 142.64,93.22 142.75,95.43 C142.86,97.63 142.95,99.37 142.99,100.75 ZM 389.44 140.90 C388.64,139.62 391.93,133.75 394.73,131.46 C396.63,129.89 397.24,128.42 397.30,125.21 C397.34,122.89 397.77,121.00 398.25,121.00 C398.73,121.00 398.85,120.57 398.53,120.05 C398.21,119.53 399.27,118.12 400.90,116.92 C402.52,115.72 404.12,113.65 404.45,112.33 C404.79,111.00 405.47,110.17 405.97,110.48 C406.51,110.81 406.45,112.27 405.83,114.05 C405.25,115.71 405.01,117.95 405.30,119.03 C405.58,120.12 405.23,121.34 404.53,121.75 C403.82,122.16 401.81,126.08 400.06,130.46 C398.32,134.85 396.45,138.96 395.91,139.60 C394.68,141.09 390.12,142.00 389.44,140.90 ZM 106.57 138.43 C105.71,137.56 104.93,135.65 104.84,134.18 C104.25,124.67 104.39,119.34 105.26,118.25 C105.95,117.38 105.01,117.06 101.06,117.01 L 104.75 117.01 L 109.10 117.00 L 109.61 125.75 C110.34,138.15 110.59,139.00 113.52,139.00 L 116.00 139.00 L 116.00 140.00 L 106.72 140.00 C105.88,140.00 105.10,140.00 104.36,139.99 C107.71,139.95 107.83,139.69 106.57,138.43 ZM 103.20 106.00 C105.90,106.00 106.11,105.76 105.58,103.25 C105.26,101.74 104.90,96.79 104.78,92.25 L 104.57 84.00 C105.08,84.00 105.62,84.00 106.19,84.00 L 108.78 84.00 L 109.56 87.75 C109.99,89.81 110.27,92.62 110.17,94.00 C110.08,95.38 110.27,98.89 110.58,101.81 C110.89,104.60 111.11,105.93 111.64,106.50 L 104.66 106.50 C102.37,106.50 100.22,106.46 98.42,106.38 C100.08,106.16 101.99,106.00 103.20,106.00 ZM 94.92 106.15 C94.02,106.06 93.47,105.95 93.40,105.83 C93.17,105.46 93.04,101.19 93.12,96.33 C93.18,91.99 93.26,89.18 93.93,87.35 C94.05,87.26 94.18,87.16 94.33,87.05 C97.11,84.88 97.87,87.07 97.55,96.33 C97.32,102.77 96.90,104.61 95.38,105.79 C95.21,105.92 95.06,106.04 94.92,106.15 ZM 93.47 117.95 C93.82,118.41 95.00,118.55 96.16,118.25 C98.26,117.70 98.30,117.87 97.73,125.40 C97.17,132.85 95.74,136.57 93.89,135.43 C93.70,135.31 93.52,135.27 93.38,135.30 C93.01,133.38 93.06,130.69 93.18,126.90 ZM 291.89 142.14 C291.96,142.05 292.00,141.97 292.00,141.89 C292.00,140.24 295.94,137.04 297.32,137.57 C298.07,137.86 299.25,137.41 299.94,136.57 C300.98,135.32 300.79,134.53 298.85,132.08 C295.96,128.42 295.29,128.38 289.85,131.49 C295.29,128.38 295.72,128.40 300.00,132.00 L 303.50 134.94 L 300.50 137.41 C298.33,139.20 295.66,140.68 291.89,142.14 ZM 415.26 91.75 C413.72,89.80 414.16,87.00 416.00,87.00 C418.34,87.00 418.78,87.69 418.24,90.52 C417.72,93.26 416.76,93.65 415.26,91.75 ZM 326.41 82.17 C327.74,79.60 327.72,79.33 326.20,79.33 C325.28,79.33 323.93,79.93 323.21,80.65 C322.12,81.73 322.12,82.23 323.20,83.45 C323.28,83.54 323.35,83.62 323.42,83.71 C324.04,84.41 324.38,84.80 324.70,84.78 C325.12,84.75 325.49,83.96 326.41,82.17 ZM 361.57 118.11 C360.58,116.51 354.78,115.76 352.00,116.87 C349.84,117.74 350.20,117.88 354.69,117.94 C357.55,117.97 360.18,118.48 360.54,119.07 C360.90,119.65 361.43,119.91 361.70,119.63 C361.98,119.36 361.91,118.67 361.57,118.11 ZM 406.28 104.97 C406.35,103.96 406.77,103.36 407.21,103.63 C407.64,103.90 408.00,103.61 408.00,103.00 C408.00,102.39 408.47,102.18 409.06,102.53 C410.61,103.50 409.76,106.27 407.82,106.56 C406.73,106.72 406.19,106.16 406.28,104.97 ZM 194.43 93.25 L 193.99 118.04 C193.99,117.25 193.99,116.45 193.99,115.63 C194.00,112.62 193.98,109.93 193.97,107.54 C193.92,100.02 193.90,95.48 194.43,93.25 ZM 286.93 143.87 C282.20,145.37 276.95,145.15 271.82,143.55 C276.48,144.75 281.60,144.79 287.35,143.73 C287.21,143.78 287.07,143.82 286.93,143.87 ZM 599.06 143.28 L 599.06 143.25 C599.10,141.90 608.54,122.50 617.08,105.59 C608.94,121.99 599.84,140.82 599.06,143.28 ZM 123.00 21.00 C123.00,20.45 123.45,20.00 124.00,20.00 C124.55,20.00 125.00,20.45 125.00,21.00 C125.00,21.55 124.55,22.00 124.00,22.00 C123.45,22.00 123.00,21.55 123.00,21.00 ZM 794.24 129.93 C795.10,125.59 795.52,117.34 795.77,103.25 L 796.18 79.00 L 795.79 103.25 C795.52,120.62 795.24,126.38 794.24,129.93 ZM 249.43 99.48 C248.04,103.03 247.51,106.92 247.52,112.00 C247.53,117.06 248.01,120.66 249.45,124.02 C246.66,117.73 246.65,106.22 249.43,99.48 ZM 783.54 127.77 C784.87,124.06 785.00,117.57 785.00,102.35 C785.00,121.79 784.95,125.14 783.54,127.77 ZM 114.38 106.50 C115.45,105.84 115.57,103.71 115.78,95.25 L 115.50 106.50 ZM 207.96 101.79 C206.80,100.76 205.58,99.67 204.34,98.55 L 197.41 92.24 C198.68,93.10 200.41,94.73 202.76,96.95 C203.88,98.01 205.14,99.20 206.56,100.50 ZM 268.13 81.11 C272.10,79.37 274.54,79.00 280.40,79.00 C275.91,79.00 271.84,79.70 268.13,81.11 ZM 98.51 117.01 C95.81,117.07 93.84,117.34 93.48,117.70 L 93.50 117.01 ZM 663.46 143.89 L 663.96 145.00 L 658.00 145.00 C662.33,145.00 663.55,144.81 663.46,143.89 ZM 100.58 139.88 C97.60,139.70 95.77,139.25 94.66,138.11 C96.05,138.97 98.17,139.63 100.58,139.88 ZM 137.26 139.82 C137.12,139.83 136.98,139.83 136.83,139.84 C131.70,140.02 127.16,139.83 126.75,139.42 C126.74,139.41 126.72,139.39 126.71,139.37 C127.29,139.71 131.34,139.93 135.92,139.85 C136.39,139.84 136.83,139.83 137.26,139.82 ZM 12.72 97.23 C7.17,102.02 4.33,104.95 4.04,106.68 C4.15,105.00 7.02,102.08 12.72,97.23 ZM 238.77 107.34 C238.59,107.79 238.13,108.12 237.42,108.39 C237.03,108.54 236.14,108.66 234.92,108.74 C237.09,108.50 238.30,108.04 238.77,107.34 ZM 257.65 135.09 C255.85,133.39 254.18,131.50 252.69,129.45 C253.80,130.90 255.12,132.42 256.69,134.10 C257.01,134.44 257.33,134.77 257.65,135.09 ZM 42.94 95.00 C42.55,95.04 40.59,96.44 38.16,98.40 C38.21,98.35 38.27,98.30 38.33,98.25 C40.39,96.46 42.46,95.00 42.93,95.00 C42.93,95.00 42.94,95.00 42.94,95.00 ZM 226.78 108.91 C224.00,108.89 221.20,108.80 219.10,108.64 L 224.68 108.85 C225.41,108.88 226.11,108.90 226.78,108.91 ZM 232.71 99.55 C235.19,101.80 236.85,103.47 237.82,104.73 C236.69,103.39 234.84,101.51 232.71,99.55 ZM 124.00 5.12 C125.29,5.25 126.51,5.64 127.66,6.29 C127.88,6.41 128.21,6.63 128.62,6.94 C128.14,6.62 127.69,6.34 127.32,6.15 C126.26,5.59 125.16,5.25 124.00,5.12 ZM 193.33 141.28 C193.18,143.47 192.97,145.00 192.68,146.27 C192.94,144.98 193.16,143.33 193.33,141.28 ZM 599.46 144.39 C600.12,144.84 601.57,144.99 604.25,144.98 C601.42,144.99 600.06,144.87 599.46,144.39 Z" fill="rgb(229,197,110)"/>
<path d="M 0.00 131.50 L 0.00 0.00 L 475.00 0.00 L 950.00 0.00 L 950.00 131.50 L 950.00 263.00 L 475.00 263.00 L 0.00 263.00 L 0.00 131.50 ZM 65.00 75.64 C65.82,74.85 70.32,70.94 75.00,66.95 C83.18,59.97 95.38,49.23 101.07,44.00 C102.57,42.62 105.75,39.70 108.15,37.50 C116.96,29.40 120.11,27.00 121.91,27.00 C122.92,27.00 130.39,32.74 138.50,39.75 C146.61,46.76 154.24,53.05 155.44,53.72 C156.65,54.39 161.54,58.59 166.32,63.06 L 175.00 71.18 L 175.00 116.45 C175.00,141.35 175.29,163.82 175.64,166.39 C176.27,170.97 176.32,171.02 178.27,169.28 C181.75,166.18 188.09,157.04 190.84,151.17 C193.47,145.56 193.50,145.22 194.00,117.55 L 194.50 89.59 L 204.34 98.55 C209.75,103.47 214.93,107.81 215.84,108.18 C217.93,109.04 235.29,109.21 237.42,108.39 C240.32,107.28 239.06,105.20 231.34,98.32 C227.13,94.57 212.17,81.20 198.09,68.61 C184.02,56.02 166.20,40.15 158.50,33.34 C150.80,26.53 141.20,17.93 137.16,14.23 C133.12,10.53 128.85,6.95 127.66,6.29 C122.81,3.56 116.60,5.42 110.00,11.57 C103.80,17.35 100.40,20.43 92.40,27.54 C88.09,31.37 80.41,38.21 75.34,42.75 C70.27,47.29 65.52,51.00 64.80,51.00 C64.07,51.00 63.03,49.99 62.49,48.75 C61.59,46.70 60.73,46.47 52.65,46.21 C46.99,46.02 43.30,46.34 42.40,47.08 C41.34,47.96 41.00,51.19 41.00,60.36 L 41.00 72.47 L 34.55 78.48 C31.01,81.79 22.93,88.78 16.59,94.00 C0.27,107.47 0.07,109.20 14.82,108.69 C25.77,108.31 26.95,107.84 35.81,100.34 C39.28,97.40 42.49,95.00 42.95,95.00 C43.42,95.00 43.99,105.91 44.23,119.25 C44.58,139.23 44.96,144.20 46.37,147.50 C50.10,156.21 54.56,163.39 59.94,169.32 L 62.50 172.14 L 63.00 124.60 C63.43,84.11 63.72,76.86 65.00,75.64 ZM 286.93 143.87 C293.50,141.79 297.48,139.89 300.50,137.41 L 303.50 134.94 L 300.00 132.00 C295.72,128.40 295.29,128.38 289.85,131.49 C279.39,137.47 265.29,132.30 259.88,120.50 C255.70,111.39 258.95,99.35 267.15,93.58 C270.65,91.11 272.50,90.59 278.90,90.24 C285.60,89.87 287.06,90.13 291.25,92.38 L 296.00 94.94 L 299.54 91.83 L 303.08 88.72 L 301.08 86.59 C299.98,85.42 296.66,83.23 293.69,81.73 C289.17,79.44 287.02,79.00 280.40,79.00 C273.79,79.00 271.52,79.47 266.50,81.85 C259.60,85.13 253.13,91.65 249.78,98.69 C246.51,105.59 246.55,118.62 249.86,124.89 C257.55,139.44 274.13,147.92 286.93,143.87 ZM 332.22 131.75 L 332.50 118.50 L 345.92 118.22 C353.82,118.05 359.75,118.35 360.33,118.93 C360.90,119.50 361.22,125.22 361.09,132.46 L 360.87 145.00 L 366.45 145.00 L 372.03 145.00 L 371.76 111.75 L 371.50 78.50 L 366.22 78.20 L 360.94 77.89 L 361.40 91.25 C361.65,98.60 361.52,105.16 361.10,105.83 C360.55,106.73 356.58,106.98 346.42,106.78 L 332.50 106.50 L 332.22 92.75 L 331.94 79.00 L 327.08 79.00 C324.10,79.00 322.04,79.48 321.75,80.25 C321.39,81.23 321.53,135.66 321.91,143.25 C321.98,144.67 322.94,145.00 326.97,145.00 L 331.94 145.00 L 332.22 131.75 ZM 400.88 138.61 C403.59,132.62 404.02,132.18 407.64,131.65 C412.13,130.99 430.64,131.26 431.25,132.00 C431.48,132.27 433.35,135.31 435.41,138.75 L 439.14 145.00 L 444.01 145.00 C446.69,145.00 449.14,144.57 449.47,144.05 C450.27,142.76 418.76,79.92 417.51,80.31 C416.54,80.61 385.00,142.63 385.00,144.23 C385.00,144.65 387.92,145.00 391.49,145.00 L 397.98 145.00 L 400.88 138.61 ZM 474.42 140.78 C474.79,138.45 475.05,131.14 474.99,124.53 C474.82,104.08 474.75,104.80 476.79,105.89 C478.97,107.06 501.01,127.04 512.41,138.18 C519.25,144.87 519.06,145.70 518.76,110.25 L 518.50 78.50 L 514.25 78.59 C511.91,78.63 509.71,78.95 509.37,79.30 C509.03,79.64 508.83,87.31 508.92,96.34 C509.09,112.22 508.59,118.00 507.04,118.00 C506.64,118.00 504.76,116.54 502.87,114.75 C477.89,91.12 465.72,80.03 464.75,80.01 C464.34,80.01 464.00,94.62 464.00,112.50 L 464.00 145.00 L 468.87 145.00 L 473.74 145.00 L 474.42 140.78 ZM 573.50 141.76 C581.37,137.69 586.60,132.56 590.08,125.49 C593.06,119.44 593.22,118.54 592.83,110.28 C592.47,102.95 591.92,100.61 589.48,96.14 C582.23,82.83 570.35,77.56 549.00,78.19 L 538.50 78.50 L 538.20 83.66 L 537.90 88.81 L 552.28 89.16 C566.25,89.49 566.80,89.59 571.54,92.52 C585.34,101.05 585.49,121.68 571.82,130.74 C567.82,133.39 567.09,133.51 552.83,133.82 L 538.00 134.14 L 538.00 138.99 C538.00,141.90 538.50,144.06 539.25,144.40 C539.94,144.71 546.80,144.83 554.50,144.66 C567.27,144.37 568.94,144.12 573.50,141.76 ZM 610.71 144.20 C611.37,143.78 613.09,140.86 614.53,137.72 L 617.15 132.00 L 630.86 132.00 L 644.57 132.00 L 648.31 138.50 L 652.05 145.00 L 658.00 145.00 L 663.96 145.00 L 662.73 142.28 C661.36,139.25 644.79,106.28 642.56,102.14 C641.78,100.69 639.01,95.10 636.41,89.72 C633.81,84.34 631.19,80.10 630.59,80.30 C629.24,80.74 599.13,140.84 599.06,143.25 C599.01,144.70 599.89,145.00 604.25,144.98 C607.14,144.98 610.04,144.62 610.71,144.20 ZM 687.78 131.54 C687.97,122.71 688.45,118.33 689.28,117.80 C689.95,117.37 695.67,117.09 702.00,117.17 C717.68,117.36 723.21,115.02 727.12,106.50 C730.94,98.17 728.55,87.04 721.95,82.47 C716.38,78.61 710.63,77.83 693.23,78.61 C678.37,79.27 677.95,79.35 677.39,81.60 C677.07,82.87 677.22,85.17 677.73,86.71 L 678.66 89.50 L 696.79 90.00 C713.43,90.46 715.04,90.66 716.43,92.50 C718.71,95.52 718.36,100.47 715.64,103.63 L 713.28 106.38 L 695.72 106.81 C678.85,107.23 678.15,107.33 677.60,109.37 C676.82,112.28 676.85,137.99 677.63,141.92 C678.25,145.00 678.42,145.09 682.88,144.80 L 687.50 144.50 L 687.78 131.54 ZM 779.50 143.90 C785.14,142.47 791.27,137.20 793.59,131.77 C795.14,128.14 795.46,123.89 795.79,103.25 L 796.18 79.00 L 790.59 79.00 L 785.00 79.00 L 785.00 102.05 C785.00,127.02 784.69,128.74 779.39,132.91 C777.33,134.53 775.31,135.00 770.40,135.00 C764.54,135.00 763.82,134.75 760.68,131.61 C758.82,129.75 757.00,126.77 756.65,124.99 C756.29,123.21 756.00,112.18 756.00,100.48 L 756.00 79.22 L 753.50 78.59 C749.56,77.60 746.06,78.92 745.37,81.66 C745.03,83.00 744.98,93.86 745.24,105.80 C745.75,128.87 746.44,132.51 751.35,137.85 C757.02,144.03 768.87,146.57 779.50,143.90 ZM 824.78 131.25 L 825.06 118.00 L 832.28 118.01 C838.78,118.01 839.60,118.24 840.54,120.26 C842.50,124.48 852.25,142.50 853.25,143.75 C854.63,145.48 865.00,145.44 865.00,143.70 C865.00,142.99 864.59,141.97 864.10,141.45 C863.60,140.93 860.60,135.58 857.43,129.56 C852.00,119.24 851.78,118.55 853.58,117.56 C858.36,114.92 862.82,109.06 863.91,104.00 C866.43,92.25 861.83,82.75 852.09,79.54 C848.34,78.31 844.49,78.17 831.00,78.77 L 814.50 79.50 L 814.24 110.99 C814.09,128.31 814.20,143.07 814.48,143.80 C814.82,144.69 816.50,145.01 819.74,144.81 L 824.50 144.50 L 824.78 131.25 ZM 893.78 138.50 L 896.98 132.00 L 910.74 132.01 L 924.50 132.01 L 928.03 138.26 L 931.56 144.50 L 937.81 144.80 L 944.05 145.10 L 927.52 112.05 C918.43,93.87 910.76,79.00 910.48,79.00 C909.91,79.00 878.00,143.15 878.00,144.29 C878.00,144.68 880.83,145.00 884.29,145.00 L 890.57 145.00 L 893.78 138.50 ZM 116.00 128.50 L 116.00 117.00 L 104.75 117.01 L 93.50 117.01 L 93.18 126.90 C92.77,139.54 93.25,140.00 106.72,140.00 L 116.00 140.00 L 116.00 128.50 ZM 147.58 137.56 C148.57,136.21 149.00,132.77 149.00,126.31 L 149.00 117.00 L 137.50 117.00 L 126.00 117.00 L 126.00 127.83 C126.00,133.79 126.34,139.01 126.75,139.42 C127.16,139.83 131.70,140.02 136.83,139.84 C144.68,139.55 146.39,139.19 147.58,137.56 ZM 115.78 95.25 L 116.07 84.00 L 106.19 84.00 C93.60,84.00 93.30,84.28 93.12,96.33 C93.04,101.19 93.17,105.46 93.40,105.83 C93.62,106.20 98.69,106.50 104.66,106.50 L 115.50 106.50 L 115.78 95.25 ZM 149.00 97.72 C149.00,84.04 147.26,82.51 133.12,83.69 L 126.00 84.29 L 126.00 94.98 C126.00,100.86 126.19,105.85 126.42,106.08 C126.65,106.31 131.82,106.61 137.92,106.75 L 149.00 107.00 L 149.00 97.72 ZM 411.53 117.90 C413.08,113.03 417.04,105.00 417.90,105.00 C418.90,105.00 425.00,116.88 425.00,118.83 C425.00,119.61 422.67,120.00 417.93,120.00 C411.21,120.00 410.90,119.90 411.53,117.90 ZM 624.00 119.58 C624.00,119.35 624.94,116.99 626.10,114.33 C627.25,111.67 628.61,108.44 629.11,107.14 C630.30,104.09 631.92,105.34 635.43,112.04 C639.38,119.59 639.15,120.00 631.00,120.00 C627.15,120.00 624.00,119.81 624.00,119.58 ZM 825.67 106.33 C825.30,105.97 825.00,102.14 825.00,97.83 L 825.00 90.00 L 827.75 89.91 C829.26,89.85 834.78,89.87 840.00,89.95 C848.89,90.08 849.65,90.26 851.83,92.70 C853.72,94.80 854.04,96.00 853.54,98.90 C853.19,100.88 851.78,103.51 850.40,104.75 C848.12,106.79 846.88,107.00 837.11,107.00 C831.18,107.00 826.03,106.70 825.67,106.33 ZM 904.04 118.75 C904.06,118.06 905.56,114.35 907.37,110.50 L 910.67 103.50 L 914.85 111.75 L 919.02 120.00 L 911.51 120.00 C906.15,120.00 904.01,119.64 904.04,118.75 Z" fill="rgb(252,252,251)"/>
</g>
</svg>